<?xml version="1.0" encoding="utf-8"?>
<!-- Generator: Adobe Illustrator 19.1.0, SVG Export Plug-In . SVG Version: 6.00 Build 0)  -->
<svg version="1.1" id="Layer_1" xmlns="http://www.w3.org/2000/svg" xmlns:xlink="http://www.w3.org/1999/xlink" x="0px" y="0px"
	 viewBox="0 0 192.7 51.5" style="enable-background:new 0 0 192.7 51.5;" xml:space="preserve">
<style type="text/css">
	.st0{fill:#3FC3F1;}
</style>
<g>
	<g>
		<g>
			<path class="st0" d="M61.3,50.9V0.4h16c4.8,0,8.7,1.3,11.5,3.9c2.9,2.6,4.3,6.1,4.3,10.5c0,2.9-0.7,5.5-2.2,7.8
				c-1.5,2.3-3.5,3.9-6,4.9c-2.6,1-6.2,1.5-11,1.5h-5.3v21.9H61.3z M76.1,6.8h-7.5v15.8h7.9c2.9,0,5.2-0.7,6.8-2.1
				c1.6-1.4,2.4-3.4,2.4-5.9C85.7,9.4,82.5,6.8,76.1,6.8z"/>
			<path class="st0" d="M96.1,0.4h6.6v50.5h-6.6V0.4z"/>
			<path class="st0" d="M130.5,30.9v14.1c0,1.1,0.4,1.7,1.2,1.7c0.8,0,2-0.6,3.7-1.8v4c-1.5,1-2.7,1.6-3.6,2
				c-0.9,0.3-1.8,0.5-2.8,0.5c-2.8,0-4.5-1.1-5-3.3c-2.8,2.2-5.8,3.3-8.9,3.3c-2.3,0-4.2-0.8-5.8-2.3c-1.5-1.5-2.3-3.5-2.3-5.8
				c0-2.1,0.8-4,2.3-5.6c1.5-1.7,3.6-3,6.4-3.9l8.4-2.9v-1.8c0-4-2-6-6-6c-3.6,0-7.1,1.9-10.5,5.6v-7.2c2.6-3,6.2-4.5,11-4.5
				c3.6,0,6.5,0.9,8.6,2.8c0.7,0.6,1.4,1.4,2,2.4c0.6,1,0.9,2,1.1,3C130.4,26.2,130.5,28.1,130.5,30.9z M124,44.3v-9.9l-4.4,1.7
				c-2.2,0.9-3.8,1.8-4.8,2.7c-0.9,0.9-1.4,2-1.4,3.4c0,1.4,0.4,2.5,1.3,3.4c0.9,0.9,2,1.3,3.4,1.3C120.3,46.9,122.2,46,124,44.3z"
				/>
			<path class="st0" d="M132.4,22.9l12.4-12.1v6.9h10.5v5.9h-10.5v16.3c0,3.8,1.6,5.7,4.7,5.7c2.4,0,4.9-0.8,7.5-2.3v6.1
				c-2.5,1.4-5.3,2.1-8.3,2.1c-3,0-5.5-0.9-7.5-2.6c-0.6-0.5-1.1-1.1-1.6-1.8c-0.4-0.7-0.8-1.5-1-2.6c-0.3-1.1-0.4-3.1-0.4-6.1V23.6
				h-5.8V22.9z"/>
			<path class="st0" d="M175,17.6c5.1,0,9.3,1.6,12.6,4.9c3.3,3.3,5,7.4,5,12.3c0,4.8-1.7,8.8-5.1,11.9c-3.4,3.2-7.7,4.8-12.8,4.8
				c-5,0-9.2-1.6-12.5-4.8c-3.3-3.2-5-7.2-5-12c0-4.9,1.7-8.9,5.1-12.2C165.7,19.2,169.9,17.6,175,17.6z M174.7,23.5
				c-3.2,0-5.7,1-7.8,3.1c-2,2.1-3,4.7-3,7.9c0,3.2,1,5.8,3.1,7.8c2.1,2,4.7,3,8,3c3.2,0,5.9-1,7.9-3.1c2.1-2,3.1-4.6,3.1-7.8
				c0-3.2-1.1-5.8-3.2-7.8C180.6,24.6,177.9,23.5,174.7,23.5z"/>
		</g>
	</g>
	<g>
		<path class="st0" d="M10.9,0L0,0v9.9c0,0-0.2-6,2.1-7.9C4.4,0,10.9,0,10.9,0z"/>
		<g>
			<path class="st0" d="M20.5,43.6c0-0.1,0.1-0.1,0.1-0.2C20.7,43.4,20.6,43.5,20.5,43.6z"/>
			<path class="st0" d="M19.1,47.3c-0.4-1.1,1-3.1,1.5-3.7c-0.7,0.8-1.1-0.2-2.4,2.2c-1.4,2.6,0.9,3.4,1.6,4.5H21
				C20.6,49,19.5,48.5,19.1,47.3z"/>
			<path class="st0" d="M32.8,44.5c2.1-3.7,1-5.1,1.1-4.9c0.4,1.1-0.9,2.4-1.9,3.7c-0.9,1.3-0.7,3,0.4,4.9c0.6,1,0.6,1.6,0.3,2.2
				h1.3C34.1,47.8,32.1,45.7,32.8,44.5z"/>
			<path class="st0" d="M13.1,45.6c-1.4-1.6-0.4-2.7,0-4c0.4-1.3,2.5-2.9,2.5-2.9c-0.7,0-2.7,1.7-4.2,3.9c-1.5,2.2,0.8,3.4,1.8,4.4
				c0.8,1,1.5,2.1,1.1,3.3h1.3c0-0.1,0-0.1,0-0.2C15.6,49.1,14.5,47.2,13.1,45.6z"/>
			<path class="st0" d="M7.9,37.3c0.2,0.5,0.4,1,0.8,1.4C8.7,38.6,8.3,38.1,7.9,37.3z"/>
			<path class="st0" d="M38.1,40.7c1.5-0.7,1.4-2,1.4-2c0,0.5-0.2,0.8-1.5,1.1c-1.3,0.3-2.1,1.1-2.7,3c-0.6,1.9,1.8,2.8,2.6,4
				c0.8,1.3,0.8,2.6,0.8,2.6c0.9-2.6-1.1-4.2-1.8-5C36.2,43.6,36.6,41.4,38.1,40.7z"/>
			<path class="st0" d="M7.9,37.3c-0.7-2.2,0.5-5.2,0.7-5.9c0.3-0.9-0.5-1.3-1.7-1.6c-1.2-0.3-0.6-9.4-2-5.6
				c-0.7,1.8,0.7,5.8,1.9,6.5s-0.2,1.1-0.6,2.3C6,33.6,7.1,35.8,7.9,37.3z"/>
			<path class="st0" d="M2,18c1.8-0.9,2,3.7,2,3.2c0.1-1.6,0.4-6.3-1.8-4.8c-2.2,1.5-1.9,4.8-1.8,5.3C0.5,23,0.2,18.9,2,18z"/>
			<path class="st0" d="M26.6,13c0-0.8-1.2-0.8-3.8-1c-2.6-0.2-5.1,2.9-4.8,2.7c4-3.2,6.4-1.3,7.2-0.9C25.9,14.2,26.6,13.8,26.6,13z
				"/>
			<path class="st0" d="M30.3,7.9c0.4-1.2-1.6,1.7-8.3,1.2c-6.8-0.6-7.9,3.5-8.4,3.7c-0.5,0.2-1.8,0.3-1.3,0.9
				c0.5,0.6,4,1.4,4.9,0.9c0.8-0.5,2.8-3.2,4-3.5s3.6-0.2,4.9,0.4c1.3,0.7,4.2,0.5,5.3-0.2c0.6-0.4,0.9-1.1,1.2-1.3
				C30.5,9.5,29.9,9.1,30.3,7.9z"/>
			<path class="st0" d="M32.6,9.9c0,0,0.1,0,0.1,0c0.1,0,0.2,0,0.3,0C32.8,9.8,32.7,9.8,32.6,9.9z"/>
			<path class="st0" d="M50.3,50.3V0h-2.1c0,0.8,0,1.5,0,2.3c0,2.4-1.5,5.2-2.8,6s-3.1,0.7-4.7,0c-1.6-0.7-3,0.8-4.3,0.7
				s-2.1-0.9-2.4-1.6c-0.3-0.6,0.6,2.4-1.1,2.4c0.2,0.1,0.4,0.3,0.6,0.7c1.2,1.8,1.2,2.8,1.2,4.8s-0.1,4.4,1.1,5.7s0.9,5.2-1.2,5.3
				c-2.1,0.1-3.5-0.2-3.9-0.5c-0.4-0.2-1.2,0.3-1.8,0.5c-0.7,0.2-1.2,0.1-1.9,0s-2.2,1.5,0.6,1.5c2.8,0,4,0.7,4.2,1.3
				s4.4,1.5,5.4,1.1c1-0.4,2.1-1.7,1.8-2.9s-0.4-3.9-0.9-5.1s-2.6-5.4-2.2-6.8c0.3-1.5-0.5-2.1,1-2.9s4.3-2.3,5.8-1.6
				c1.5,0.7,2.1,1.2,1.7,2.7c-0.4,1.5-0.1,2,1.3,2.1c1.5,0.2,3,2.3,3,4s-0.6,4.6-2.2,6.2s-1.9,5.4-1.6,6.4c0.3,1,1.5,2.7,1.3,4.4
				s-0.6,2.1-1.1,3c-0.6,1.1,0.8,3.9-0.9,5.2c-1.3,1-1.8,3.1-1.6,3.5c0.4,0.7,0.5,1.3,0.5,1.9H50.3z"/>
			<path class="st0" d="M42.1,32.2c1.2,1.9,0.4,2.9-0.7,4.8s0.2,4.2,0.3,4.7c0.1,1,0.4-2.3,1.6-4.7C44.6,34.6,42.1,32.2,42.1,32.2z"
				/>
			<path class="st0" d="M38.4,31.2c-0.7-0.7-3.1,0-3.6,0.4c-0.4,0.4-1.2,0.4-2.8,0.1c-1.7-0.4-5.1,1-5.3,1.2c-3.1,2-0.1,5.4-0.6,4.5
				c-0.5-0.9,0.2-1.8,0.6-2.8s3.8-1.6,4.4-1.3s2,0.4,3,0.1s3.6-0.7,4.2,0c0.6,0.7-1.2,1.7-2.3,2.2c-1.2,0.5-7.4-0.1-8.5-0.3
				c-1-0.1-0.6-0.4-0.3,0.5c0.3,0.9,2.9,1,3.2,1.2c0.3,0.1,4.7-0.1,5.9,0.3c1.2,0.4,2.6-1.6,3.5-3.1C40.6,32.7,39,31.9,38.4,31.2z"
				/>
			<path class="st0" d="M37.1,13.1c-0.3,0-0.5,0.1-0.6,0.2C36.4,13.4,36.7,13.3,37.1,13.1z"/>
			<path class="st0" d="M42.5,12.2c-1.4-0.4-4.1,0.5-5.4,0.9c1.2-0.2,3.6-0.1,4.8-0.1c1.4,0,0.4,1.1-0.1,1.3
				c-0.5,0.2-1.8,0.8-0.5,1.2c1.2,0.4,2.6-0.8,2.7-1.2C44,13.8,44.5,12.8,42.5,12.2z"/>
		</g>
	</g>
</g>
</svg>
